<svg width="100" height="20" viewBox="0 0 100 20" fill="none" xmlns="http://www.w3.org/2000/svg">
<path d="M5.8824 3.19481H0V16.1039H2.1414V5.03896H5.8824C10.1394 5.03896 12.4872 7.92208 12.4872 11.4805C12.4872 15.039 10.062 17.9221 5.8824 17.9221H0V19.7662H5.8824C11.2488 19.7662 14.706 16.2078 14.706 11.5065C14.706 6.83117 11.2488 3.24675 5.8824 3.24675V3.19481Z" fill="#DDDDDD"/>
<path d="M23.3069 5.55844C24.4937 5.55844 25.5085 5.81818 26.3513 6.33766C27.2113 6.85714 27.8649 7.59307 28.3121 8.54545C28.7765 9.48052 29.0087 10.5801 29.0087 11.8442V13.2208H19.5401C19.5745 14.7965 19.9701 16 20.7269 16.8312C21.5009 17.645 22.5759 18.0519 23.9519 18.0519C24.8291 18.0519 25.6031 17.974 26.2739 17.8182C26.9619 17.645 27.6671 17.4026 28.3895 17.0909V19.0909C27.6843 19.4026 26.9877 19.6277 26.2997 19.7662C25.6117 19.9221 24.7947 20 23.8487 20C22.5415 20 21.3805 19.7316 20.3657 19.1948C19.3681 18.658 18.5855 17.8615 18.0179 16.8052C17.4675 15.7316 17.1923 14.4242 17.1923 12.8831C17.1923 11.3593 17.4417 10.0519 17.9405 8.96104C18.4565 7.87013 19.1703 7.0303 20.0819 6.44156C21.0107 5.85281 22.0857 5.55844 23.3069 5.55844ZM23.2811 7.42857C22.1975 7.42857 21.3375 7.78355 20.7011 8.49351C20.0819 9.18615 19.7121 10.1558 19.5917 11.4026H26.6351C26.6179 10.2251 26.3427 9.27273 25.8095 8.54545C25.2763 7.80087 24.4335 7.42857 23.2811 7.42857Z" fill="#DDDDDD"/>
<path d="M35.0697 19.7403L29.8323 5.81818H32.2575L35.1987 14.026C35.3363 14.4069 35.4825 14.8312 35.6373 15.2987C35.7921 15.7662 35.9297 16.2164 36.0501 16.6494C36.1705 17.0649 36.2565 17.4199 36.3081 17.7143H36.4113C36.4801 17.4199 36.5747 17.0563 36.6951 16.6234C36.8327 16.1905 36.9789 15.7403 37.1337 15.2727C37.3057 14.8052 37.4519 14.3896 37.5723 14.026L40.5135 5.81818H42.9387L37.6755 19.7403H35.0697Z" fill="#DDDDDD"/>
<path d="M57.1496 12.7532C57.1496 15.0563 56.5648 16.8398 55.3952 18.1039C54.2428 19.368 52.6776 20 50.6996 20C49.4784 20 48.3862 19.7229 47.423 19.1688C46.477 18.5974 45.7288 17.7749 45.1784 16.7013C44.628 15.6104 44.3528 14.2944 44.3528 12.7532C44.3528 10.4502 44.929 8.67532 46.0814 7.42857C47.2338 6.18182 48.799 5.55844 50.777 5.55844C52.0326 5.55844 53.1334 5.84416 54.0794 6.41558C55.0426 6.9697 55.7908 7.78355 56.324 8.85714C56.8744 9.91342 57.1496 11.2121 57.1496 12.7532ZM46.7006 12.7532C46.7006 14.3983 47.0188 15.7056 47.6552 16.6753C48.3088 17.6277 49.3408 18.1039 50.7512 18.1039C52.1444 18.1039 53.1678 17.6277 53.8214 16.6753C54.475 15.7056 54.8018 14.3983 54.8018 12.7532C54.8018 11.1082 54.475 9.81818 53.8214 8.88312C53.1678 7.94805 52.1358 7.48052 50.7254 7.48052C49.315 7.48052 48.2916 7.94805 47.6552 8.88312C47.0188 9.81818 46.7006 11.1082 46.7006 12.7532Z" fill="#DDDDDD"/>
<path d="M63.0183 19.7403H60.7479V0H63.0183V19.7403Z" fill="#DDDDDD"/>
<path d="M78.9579 5.81818V19.7403H77.1003L76.7649 17.8961H76.6617C76.2145 18.6234 75.5953 19.1602 74.8041 19.5065C74.0129 19.8355 73.1701 20 72.2757 20C70.6073 20 69.3517 19.6017 68.5089 18.8052C67.6661 17.9913 67.2447 16.7013 67.2447 14.9351V5.81818H69.5409V14.7792C69.5409 16.9957 70.5643 18.1039 72.6111 18.1039C74.1419 18.1039 75.1997 17.671 75.7845 16.8052C76.3865 15.9394 76.6875 14.6926 76.6875 13.0649V5.81818H78.9579Z" fill="#DDDDDD"/>
<path d="M90.0303 19.7403V6.83117H87.8889V19.7403H90.0303ZM95.4999 5.03896V3.19481H82.4451V5.03896H95.4999Z" fill="#DDDDDD"/>
<path d="M100 19.7403V3.19481H97.8586V19.7403H100Z" fill="#DDDDDD"/>
</svg>
